<?xml version="1.0" encoding="UTF-8"?>
<svg xmlns="http://www.w3.org/2000/svg" xmlns:xlink="http://www.w3.org/1999/xlink" width="60px" height="59px" viewBox="0 0 59 59" version="1.1">
<g id="surface1">
<path style=" stroke:none;fill-rule:nonzero;fill:rgb(100%,100%,100%);fill-opacity:1;" d="M 34.417969 8.601562 C 34.566406 8.714844 34.699219 8.835938 34.828125 8.976562 C 34.855469 9.003906 34.882812 9.035156 34.914062 9.066406 C 35.28125 9.496094 35.523438 10.03125 35.605469 10.59375 C 35.613281 10.644531 35.621094 10.691406 35.628906 10.742188 C 35.691406 11.277344 35.5625 11.902344 35.234375 12.339844 C 34.996094 12.59375 34.730469 12.761719 34.421875 12.917969 C 34.339844 12.960938 34.253906 13.003906 34.171875 13.046875 C 34.089844 13.085938 34.007812 13.128906 33.925781 13.171875 C 33.292969 13.488281 33.292969 13.488281 32.738281 13.917969 C 32.710938 13.9375 32.6875 13.957031 32.664062 13.976562 C 32.601562 14.046875 32.601562 14.046875 32.613281 14.160156 C 32.664062 14.320312 32.746094 14.421875 32.855469 14.539062 C 33.128906 14.847656 33.210938 15.09375 33.207031 15.496094 C 33.203125 15.558594 33.203125 15.558594 33.203125 15.617188 C 33.191406 16.1875 33.132812 17.671875 32.738281 18.074219 C 32.722656 18.304688 32.722656 18.460938 32.859375 18.65625 C 33.085938 18.867188 33.34375 19.042969 33.59375 19.226562 C 34.296875 19.746094 34.976562 20.289062 35.585938 20.921875 C 35.648438 20.984375 35.714844 21.042969 35.785156 21.097656 C 35.820312 21.128906 35.855469 21.160156 35.890625 21.191406 C 35.890625 21.21875 35.890625 21.246094 35.890625 21.273438 C 35.917969 21.273438 35.945312 21.273438 35.972656 21.273438 C 36.027344 21.324219 36.027344 21.324219 36.089844 21.402344 C 36.183594 21.515625 36.277344 21.625 36.378906 21.734375 C 37.09375 22.488281 37.640625 23.355469 38.144531 24.265625 C 38.160156 24.289062 38.175781 24.316406 38.1875 24.34375 C 38.417969 24.75 38.601562 25.171875 38.78125 25.601562 C 39.027344 26.1875 39.027344 26.1875 39.457031 26.632812 C 39.601562 26.632812 39.699219 26.628906 39.8125 26.53125 C 39.898438 26.363281 39.882812 26.199219 39.882812 26.015625 C 39.882812 25.972656 39.886719 25.933594 39.886719 25.890625 C 39.886719 25.761719 39.886719 25.632812 39.890625 25.5 C 39.898438 24.0625 39.898438 24.0625 40.105469 23.394531 C 40.117188 23.355469 40.132812 23.316406 40.144531 23.273438 C 40.484375 22.21875 40.976562 21.320312 41.886719 20.6875 C 41.925781 20.65625 41.96875 20.628906 42.007812 20.597656 C 42.226562 20.445312 42.445312 20.3125 42.683594 20.195312 C 42.78125 20.148438 42.875 20.097656 42.96875 20.046875 C 43.757812 19.644531 44.722656 19.546875 45.574219 19.804688 C 46.742188 20.246094 47.664062 21.101562 48.222656 22.230469 C 48.238281 22.253906 48.25 22.277344 48.261719 22.304688 C 48.425781 22.632812 48.539062 22.96875 48.625 23.324219 C 48.632812 23.359375 48.640625 23.390625 48.652344 23.425781 C 48.796875 24.074219 48.8125 24.734375 48.808594 25.398438 C 48.808594 25.53125 48.808594 25.664062 48.808594 25.796875 C 48.808594 25.882812 48.808594 25.96875 48.808594 26.054688 C 48.808594 26.09375 48.808594 26.132812 48.808594 26.171875 C 48.808594 26.535156 48.753906 26.882812 48.632812 27.226562 C 48.617188 27.273438 48.601562 27.320312 48.585938 27.367188 C 48.558594 27.4375 48.558594 27.4375 48.535156 27.511719 C 48.515625 27.5625 48.5 27.609375 48.480469 27.664062 C 48.320312 28.101562 48.140625 28.53125 47.949219 28.957031 C 47.800781 29.285156 47.738281 29.492188 47.863281 29.84375 C 47.882812 29.890625 47.902344 29.9375 47.925781 29.984375 C 47.949219 30.039062 47.96875 30.09375 47.992188 30.144531 C 48.003906 30.171875 48.015625 30.199219 48.027344 30.226562 C 48.210938 30.648438 48.382812 31.070312 48.519531 31.507812 C 48.535156 31.558594 48.535156 31.558594 48.550781 31.613281 C 48.582031 31.710938 48.609375 31.808594 48.632812 31.910156 C 48.640625 31.941406 48.652344 31.972656 48.660156 32.003906 C 48.726562 32.292969 48.726562 32.582031 48.726562 32.878906 C 48.726562 32.960938 48.726562 33.042969 48.726562 33.128906 C 48.726562 33.632812 48.660156 34.101562 48.519531 34.585938 C 48.503906 34.640625 48.503906 34.640625 48.488281 34.699219 C 48.238281 35.539062 47.835938 36.417969 47.28125 37.105469 C 47.253906 37.105469 47.226562 37.105469 47.199219 37.105469 C 47.191406 37.125 47.179688 37.148438 47.167969 37.175781 C 46.765625 37.921875 45.710938 38.3125 44.957031 38.5625 C 44.140625 38.792969 43.15625 38.675781 42.414062 38.265625 C 42.210938 38.140625 42.011719 38.011719 41.832031 37.851562 C 41.832031 37.824219 41.832031 37.796875 41.832031 37.769531 C 41.804688 37.769531 41.777344 37.769531 41.75 37.769531 C 41.75 37.742188 41.75 37.714844 41.75 37.683594 C 41.722656 37.683594 41.695312 37.683594 41.667969 37.683594 C 41.617188 37.632812 41.617188 37.632812 41.550781 37.554688 C 41.457031 37.445312 41.367188 37.335938 41.269531 37.226562 C 40.441406 36.285156 40.003906 35.390625 40.011719 34.121094 C 40.011719 34.0625 40.011719 34.0625 40.011719 34.003906 C 40.015625 33.347656 40.046875 32.703125 40.21875 32.070312 C 40.25 31.921875 40.1875 31.789062 40.113281 31.660156 C 39.960938 31.589844 39.820312 31.625 39.660156 31.660156 C 39.484375 32.171875 39.351562 32.695312 39.234375 33.226562 C 38.78125 35.277344 37.765625 37.027344 36.652344 38.777344 C 36.601562 38.859375 36.550781 38.941406 36.496094 39.023438 C 36.449219 39.101562 36.398438 39.175781 36.347656 39.253906 C 36.210938 39.453125 36.210938 39.453125 36.191406 39.683594 C 36.214844 39.726562 36.238281 39.765625 36.261719 39.804688 C 36.273438 39.828125 36.289062 39.851562 36.300781 39.878906 C 36.351562 39.960938 36.402344 40.042969 36.453125 40.125 C 37.246094 41.378906 37.671875 42.652344 37.664062 44.144531 C 37.664062 44.261719 37.664062 44.378906 37.664062 44.492188 C 37.664062 44.570312 37.664062 44.644531 37.664062 44.71875 C 37.664062 44.753906 37.664062 44.789062 37.664062 44.824219 C 37.664062 45.136719 37.625 45.449219 37.496094 45.734375 C 37.480469 45.765625 37.464844 45.800781 37.449219 45.832031 C 37.433594 45.863281 37.417969 45.898438 37.402344 45.929688 C 37.386719 45.964844 37.371094 46 37.351562 46.035156 C 37.21875 46.308594 37.070312 46.550781 36.875 46.785156 C 36.839844 46.824219 36.808594 46.867188 36.773438 46.910156 C 35.996094 47.820312 35.070312 48 33.941406 48.097656 C 33.171875 48.152344 32.40625 48.160156 31.636719 48.160156 C 31.492188 48.160156 31.347656 48.160156 31.203125 48.160156 C 30.957031 48.160156 30.714844 48.160156 30.46875 48.160156 C 30.222656 48.160156 29.976562 48.160156 29.726562 48.160156 C 27.386719 48.164062 27.386719 48.164062 26.378906 48.140625 C 26.347656 48.140625 26.316406 48.136719 26.28125 48.136719 C 25.964844 48.132812 25.667969 48.117188 25.363281 48.03125 C 25.304688 48.015625 25.304688 48.015625 25.242188 48 C 24.601562 47.796875 24.035156 47.417969 23.496094 47.019531 C 23.460938 46.996094 23.429688 46.972656 23.394531 46.945312 C 23.328125 46.898438 23.265625 46.851562 23.199219 46.800781 C 23.050781 46.691406 22.917969 46.59375 22.738281 46.535156 C 22.714844 46.554688 22.6875 46.578125 22.664062 46.597656 C 22.589844 46.65625 22.515625 46.714844 22.445312 46.773438 C 22.375 46.832031 22.304688 46.890625 22.238281 46.945312 C 21.824219 47.292969 21.367188 47.417969 20.855469 47.53125 C 20.816406 47.542969 20.777344 47.550781 20.738281 47.558594 C 20.226562 47.671875 19.695312 47.667969 19.171875 47.679688 C 19.136719 47.679688 19.097656 47.683594 19.058594 47.683594 C 13.5625 47.804688 13.5625 47.804688 11.0625 46.578125 C 11.015625 46.554688 10.972656 46.53125 10.925781 46.511719 C 10.070312 46.054688 9.371094 45.148438 9.085938 44.222656 C 8.75 43.078125 8.953125 41.8125 9.496094 40.761719 C 9.914062 40 10.523438 39.417969 11.226562 38.933594 C 11.265625 38.902344 11.308594 38.875 11.351562 38.84375 C 11.472656 38.761719 11.59375 38.679688 11.71875 38.597656 C 11.746094 38.582031 11.773438 38.5625 11.804688 38.542969 C 12.402344 38.148438 12.402344 38.148438 12.621094 38.019531 C 12.515625 37.714844 12.371094 37.441406 12.214844 37.164062 C 12.148438 37.046875 12.085938 36.941406 12.046875 36.8125 C 12.007812 36.796875 12.007812 36.796875 11.964844 36.777344 C 11.882812 36.730469 11.882812 36.730469 11.835938 36.621094 C 11.824219 36.574219 11.816406 36.53125 11.804688 36.484375 C 11.726562 36.214844 11.625 35.96875 11.507812 35.714844 C 10.773438 34.058594 10.4375 32.246094 10.4375 30.433594 C 10.4375 30.402344 10.4375 30.371094 10.4375 30.339844 C 10.4375 29.722656 10.484375 29.113281 10.570312 28.503906 C 10.578125 28.441406 10.578125 28.441406 10.589844 28.375 C 10.804688 26.894531 11.28125 24.957031 12.230469 23.769531 C 12.300781 23.679688 12.300781 23.679688 12.34375 23.53125 C 12.417969 23.316406 12.546875 23.148438 12.679688 22.96875 C 12.707031 22.933594 12.730469 22.898438 12.757812 22.863281 C 13.09375 22.414062 13.457031 21.996094 13.832031 21.582031 C 13.890625 21.523438 13.945312 21.460938 13.996094 21.402344 C 14.363281 20.992188 14.738281 20.582031 15.152344 20.226562 C 15.226562 20.164062 15.292969 20.105469 15.363281 20.039062 C 15.875 19.582031 16.4375 19.191406 17.015625 18.824219 C 17.082031 18.78125 17.152344 18.738281 17.21875 18.695312 C 17.925781 18.246094 18.675781 17.84375 19.464844 17.5625 C 19.539062 17.535156 19.617188 17.503906 19.695312 17.472656 C 20.457031 17.164062 21.417969 16.785156 22.246094 16.785156 C 22.246094 16.734375 22.246094 16.734375 22.246094 16.683594 C 22.246094 16.359375 22.246094 16.039062 22.246094 15.71875 C 22.246094 15.546875 22.246094 15.378906 22.246094 15.210938 C 22.246094 15.042969 22.246094 14.878906 22.246094 14.710938 C 22.246094 14.648438 22.246094 14.582031 22.246094 14.519531 C 22.242188 14.023438 22.242188 14.023438 22.355469 13.878906 C 22.441406 13.820312 22.519531 13.785156 22.617188 13.753906 C 22.664062 13.734375 22.714844 13.714844 22.765625 13.695312 C 22.871094 13.664062 22.980469 13.632812 23.085938 13.601562 C 23.199219 13.566406 23.3125 13.53125 23.425781 13.496094 C 24 13.316406 24.589844 13.246094 25.183594 13.164062 C 25.339844 13.144531 25.492188 13.125 25.648438 13.101562 C 25.746094 13.089844 25.839844 13.078125 25.9375 13.0625 C 26.1875 13.03125 26.398438 12.980469 26.632812 12.878906 C 26.691406 12.859375 26.691406 12.859375 26.753906 12.839844 C 26.753906 12.8125 26.753906 12.785156 26.753906 12.753906 C 26.78125 12.753906 26.808594 12.753906 26.835938 12.753906 C 26.847656 12.734375 26.855469 12.710938 26.867188 12.691406 C 27.292969 11.851562 27.894531 11.132812 28.515625 10.441406 C 28.59375 10.351562 28.667969 10.261719 28.746094 10.171875 C 28.886719 10.003906 29.042969 9.863281 29.214844 9.722656 C 29.253906 9.6875 29.296875 9.652344 29.339844 9.617188 C 30.734375 8.464844 32.738281 7.492188 34.417969 8.601562 Z M 30.441406 10.46875 C 30.441406 10.496094 30.441406 10.523438 30.441406 10.554688 C 30.402344 10.566406 30.359375 10.582031 30.320312 10.59375 C 30.320312 10.621094 30.320312 10.648438 30.320312 10.679688 C 30.296875 10.6875 30.269531 10.699219 30.246094 10.710938 C 30.152344 10.761719 30.097656 10.8125 30.027344 10.890625 C 30.003906 10.914062 29.980469 10.941406 29.957031 10.96875 C 29.933594 10.996094 29.910156 11.019531 29.882812 11.050781 C 29.859375 11.078125 29.832031 11.105469 29.808594 11.132812 C 29.753906 11.191406 29.703125 11.25 29.652344 11.304688 C 29.589844 11.375 29.527344 11.441406 29.464844 11.511719 C 29.085938 11.929688 28.746094 12.367188 28.433594 12.839844 C 28.441406 12.949219 28.464844 12.992188 28.539062 13.070312 C 28.871094 13.289062 29.234375 13.34375 29.621094 13.414062 C 29.734375 13.433594 29.847656 13.453125 29.964844 13.476562 C 30.714844 13.660156 30.714844 13.660156 31.425781 13.503906 C 31.503906 13.449219 31.503906 13.449219 31.570312 13.390625 C 31.605469 13.355469 31.605469 13.355469 31.644531 13.324219 C 31.671875 13.300781 31.699219 13.277344 31.726562 13.253906 C 32.183594 12.867188 32.679688 12.558594 33.199219 12.265625 C 33.898438 11.890625 33.898438 11.890625 34.335938 11.261719 C 34.394531 10.867188 34.230469 10.546875 34.015625 10.234375 C 33.6875 9.796875 33.355469 9.609375 32.820312 9.515625 C 31.96875 9.402344 31.035156 9.878906 30.441406 10.46875 Z M 24.542969 14.460938 C 24.503906 14.46875 24.460938 14.476562 24.421875 14.484375 C 24.246094 14.53125 24.1875 14.566406 24.074219 14.714844 C 23.917969 15.058594 23.914062 15.421875 23.914062 15.792969 C 23.914062 15.839844 23.914062 15.890625 23.914062 15.9375 C 23.914062 16.195312 23.917969 16.394531 24.050781 16.621094 C 24.167969 16.726562 24.25 16.761719 24.40625 16.773438 C 24.464844 16.777344 24.464844 16.777344 24.523438 16.78125 C 24.585938 16.785156 24.585938 16.785156 24.652344 16.789062 C 24.71875 16.792969 24.71875 16.792969 24.789062 16.796875 C 25.046875 16.816406 25.308594 16.832031 25.566406 16.847656 C 27.949219 16.984375 27.949219 16.984375 28.992188 17.300781 C 29.101562 17.328125 29.207031 17.34375 29.316406 17.359375 C 29.578125 17.402344 29.828125 17.480469 30.078125 17.566406 C 30.480469 17.703125 30.480469 17.703125 30.902344 17.757812 C 30.933594 17.757812 30.964844 17.757812 31 17.761719 C 31.175781 17.726562 31.273438 17.617188 31.375 17.46875 C 31.640625 16.941406 31.75 16.238281 31.582031 15.660156 C 31.519531 15.5 31.433594 15.402344 31.304688 15.289062 C 31.28125 15.269531 31.261719 15.25 31.238281 15.230469 C 30.589844 14.675781 29.542969 14.5625 28.742188 14.382812 C 28.707031 14.371094 28.667969 14.363281 28.628906 14.355469 C 28.144531 14.25 27.660156 14.242188 27.164062 14.242188 C 27.132812 14.242188 27.101562 14.242188 27.066406 14.242188 C 26.21875 14.246094 25.371094 14.28125 24.542969 14.460938 Z M 42.203125 22.6875 C 41.769531 23.242188 41.398438 23.867188 41.332031 24.585938 C 41.328125 24.632812 41.328125 24.632812 41.324219 24.683594 C 41.289062 25.066406 41.289062 25.445312 41.296875 25.828125 C 41.300781 25.910156 41.300781 25.992188 41.296875 26.070312 C 41.308594 26.601562 41.65625 27.085938 41.929688 27.519531 C 42.054688 27.726562 42.085938 27.839844 42.078125 28.085938 C 41.871094 28.15625 41.695312 28.179688 41.476562 28.183594 C 41.433594 28.1875 41.433594 28.1875 41.386719 28.1875 C 41.292969 28.1875 41.199219 28.191406 41.109375 28.191406 C 40.421875 28.15625 40.421875 28.15625 39.8125 28.371094 C 39.738281 28.46875 39.722656 28.507812 39.726562 28.628906 C 39.726562 28.660156 39.726562 28.695312 39.726562 28.726562 C 39.726562 28.761719 39.730469 28.796875 39.730469 28.828125 C 39.730469 28.863281 39.730469 28.898438 39.730469 28.9375 C 39.734375 29.042969 39.738281 29.144531 39.742188 29.25 C 39.746094 29.292969 39.746094 29.292969 39.746094 29.339844 C 39.746094 29.804688 39.746094 29.804688 39.941406 30.199219 C 40.117188 30.292969 40.304688 30.296875 40.5 30.308594 C 40.550781 30.3125 40.601562 30.316406 40.652344 30.320312 C 40.757812 30.324219 40.863281 30.332031 40.972656 30.335938 C 41.335938 30.359375 41.683594 30.40625 42.039062 30.496094 C 42.070312 30.910156 41.914062 31.253906 41.726562 31.613281 C 41.285156 32.480469 41.398438 33.617188 41.679688 34.523438 C 42.007812 35.441406 42.605469 36.289062 43.476562 36.757812 C 43.910156 36.960938 44.34375 37.023438 44.804688 36.855469 C 45.832031 36.402344 46.703125 35.613281 47.125 34.546875 C 47.164062 34.445312 47.203125 34.339844 47.242188 34.238281 C 47.261719 34.1875 47.261719 34.1875 47.277344 34.136719 C 47.667969 33.097656 47.539062 31.972656 47.121094 30.964844 C 47.003906 30.710938 46.855469 30.480469 46.707031 30.246094 C 46.253906 29.472656 46.253906 29.472656 46.3125 29.09375 C 46.367188 28.910156 46.476562 28.757812 46.582031 28.597656 C 46.855469 28.164062 47.097656 27.71875 47.324219 27.257812 C 47.347656 27.210938 47.367188 27.164062 47.390625 27.117188 C 47.695312 26.421875 47.691406 25.546875 47.617188 24.804688 C 47.613281 24.761719 47.613281 24.761719 47.609375 24.714844 C 47.585938 24.53125 47.542969 24.417969 47.445312 24.265625 C 47.421875 24.1875 47.398438 24.113281 47.378906 24.035156 C 47.230469 23.480469 46.910156 23.074219 46.542969 22.644531 C 46.515625 22.609375 46.488281 22.574219 46.457031 22.539062 C 45.921875 21.917969 45.460938 21.539062 44.621094 21.46875 C 43.632812 21.425781 42.828125 21.941406 42.203125 22.6875 Z M 22.203125 23.527344 C 21.878906 23.90625 21.667969 24.378906 21.511719 24.851562 C 21.46875 24.96875 21.425781 25.082031 21.375 25.199219 C 20.980469 26.164062 21 27.214844 21.027344 28.246094 C 21.03125 28.296875 21.03125 28.347656 21.03125 28.398438 C 21.058594 29.125 21.242188 30.054688 21.785156 30.578125 C 22.023438 30.765625 22.273438 30.890625 22.578125 30.871094 C 23.160156 30.777344 23.527344 30.359375 23.875 29.90625 C 24.132812 29.53125 24.289062 29.09375 24.453125 28.667969 C 24.484375 28.589844 24.515625 28.511719 24.546875 28.4375 C 24.785156 27.835938 24.878906 27.230469 24.953125 26.589844 C 24.957031 26.554688 24.960938 26.519531 24.964844 26.484375 C 25.035156 25.832031 25.011719 25.167969 24.941406 24.515625 C 24.9375 24.472656 24.933594 24.429688 24.929688 24.386719 C 24.855469 23.789062 24.636719 23.273438 24.183594 22.875 C 23.472656 22.363281 22.683594 23.015625 22.203125 23.527344 Z M 15.507812 23.527344 C 14.847656 24.476562 14.457031 25.722656 14.457031 26.886719 C 14.457031 26.917969 14.457031 26.949219 14.457031 26.980469 C 14.457031 27.082031 14.457031 27.183594 14.457031 27.285156 C 14.457031 27.320312 14.457031 27.355469 14.457031 27.390625 C 14.457031 28.375 14.464844 29.363281 15.183594 30.125 C 15.328125 30.265625 15.433594 30.328125 15.636719 30.332031 C 16.050781 30.265625 16.398438 29.871094 16.632812 29.542969 C 17.640625 27.980469 17.949219 26.121094 17.609375 24.292969 C 17.519531 23.851562 17.371094 23.339844 16.996094 23.0625 C 16.414062 22.722656 15.882812 23.011719 15.507812 23.527344 Z M 25.042969 40.632812 C 25 40.6875 24.953125 40.746094 24.910156 40.800781 C 24.878906 40.84375 24.847656 40.882812 24.8125 40.925781 C 24.5 41.324219 24.226562 41.710938 24.121094 42.21875 C 24.09375 42.332031 24.058594 42.425781 24.007812 42.53125 C 23.796875 43.058594 23.792969 43.625 23.785156 44.1875 C 23.785156 44.214844 23.785156 44.246094 23.785156 44.273438 C 23.777344 44.859375 23.90625 45.234375 24.296875 45.664062 C 24.960938 46.34375 25.609375 46.488281 26.519531 46.515625 C 26.546875 46.519531 26.574219 46.519531 26.605469 46.519531 C 27.382812 46.542969 28.160156 46.542969 28.941406 46.539062 C 29.148438 46.539062 29.355469 46.539062 29.5625 46.539062 C 30.339844 46.542969 31.113281 46.539062 31.886719 46.515625 C 31.917969 46.515625 31.945312 46.515625 31.972656 46.515625 C 32.511719 46.5 33.027344 46.441406 33.558594 46.34375 C 33.695312 46.324219 33.828125 46.320312 33.964844 46.3125 C 34.605469 46.269531 35.164062 46.011719 35.605469 45.539062 C 36.144531 44.902344 36.304688 44.148438 36.25 43.328125 C 36.160156 42.46875 35.800781 41.714844 35.289062 41.039062 C 35.242188 40.976562 35.199219 40.914062 35.152344 40.851562 C 34.9375 40.554688 34.667969 40.34375 34.375 40.136719 C 34.339844 40.109375 34.300781 40.085938 34.265625 40.058594 C 32.734375 39.027344 30.90625 38.929688 29.125 38.917969 C 29.082031 38.917969 29.039062 38.917969 28.992188 38.917969 C 27.441406 38.90625 26.101562 39.4375 25.042969 40.632812 Z M 11.964844 40.261719 C 11.851562 40.355469 11.746094 40.453125 11.640625 40.554688 C 11.554688 40.636719 11.554688 40.636719 11.460938 40.703125 C 11.4375 40.722656 11.414062 40.742188 11.390625 40.761719 C 11.390625 40.789062 11.390625 40.816406 11.390625 40.84375 C 11.363281 40.84375 11.335938 40.84375 11.308594 40.84375 C 10.738281 41.441406 10.433594 42.15625 10.4375 42.984375 C 10.449219 43.632812 10.644531 44.324219 11.101562 44.800781 C 11.75 45.382812 12.476562 45.648438 13.316406 45.828125 C 13.363281 45.839844 13.410156 45.847656 13.457031 45.859375 C 13.992188 45.964844 14.535156 46.007812 15.078125 46.050781 C 15.1875 46.0625 15.296875 46.070312 15.40625 46.078125 C 16.382812 46.164062 17.34375 46.183594 18.320312 46.128906 C 18.355469 46.125 18.390625 46.125 18.425781 46.121094 C 20.328125 46.109375 20.328125 46.109375 21.984375 45.320312 C 22.175781 45.082031 22.285156 44.828125 22.265625 44.519531 C 22.234375 44.335938 22.195312 44.191406 22.085938 44.042969 C 21.835938 43.890625 21.53125 43.835938 21.25 43.769531 C 19.914062 43.445312 18.652344 42.894531 17.484375 42.160156 C 17.316406 42.054688 17.148438 41.953125 16.980469 41.855469 C 16.582031 41.613281 16.1875 41.367188 15.804688 41.101562 C 15.726562 41.046875 15.648438 40.992188 15.570312 40.9375 C 14.992188 40.542969 14.464844 40.113281 13.957031 39.628906 C 13.929688 39.601562 13.902344 39.578125 13.871094 39.550781 C 13.847656 39.527344 13.824219 39.503906 13.800781 39.480469 C 13.285156 39.125 12.363281 39.941406 11.964844 40.261719 Z M 11.964844 40.261719 "/>
<path style=" stroke:none;fill-rule:nonzero;fill:rgb(100%,100%,100%);fill-opacity:1;" d="M 45.285156 23.875 C 45.679688 24.210938 45.898438 24.542969 45.957031 25.0625 C 46.011719 25.710938 45.9375 26.230469 45.523438 26.746094 C 45.234375 27.070312 44.90625 27.210938 44.476562 27.234375 C 44.105469 27.222656 43.820312 27.019531 43.558594 26.769531 C 43.195312 26.367188 43.136719 26.054688 43.132812 25.523438 C 43.132812 25.4375 43.132812 25.355469 43.132812 25.269531 C 43.128906 24.636719 43.34375 24.304688 43.773438 23.867188 C 44.136719 23.554688 44.910156 23.605469 45.285156 23.875 Z M 43.972656 24.898438 C 43.851562 25.167969 43.890625 25.527344 43.972656 25.804688 C 44.03125 25.949219 44.097656 26.066406 44.210938 26.175781 C 44.417969 26.246094 44.589844 26.25 44.789062 26.15625 C 44.996094 25.972656 45.152344 25.800781 45.199219 25.515625 C 45.210938 25.226562 45.109375 24.984375 44.925781 24.761719 C 44.796875 24.65625 44.714844 24.605469 44.550781 24.578125 C 44.320312 24.609375 44.117188 24.710938 43.972656 24.898438 Z M 43.972656 24.898438 "/>
<path style=" stroke:none;fill-rule:nonzero;fill:rgb(100%,100%,100%);fill-opacity:1;" d="M 45.199219 31.378906 C 45.546875 31.617188 45.753906 31.972656 45.863281 32.378906 C 45.976562 33.023438 45.882812 33.628906 45.515625 34.179688 C 45.316406 34.429688 45.078125 34.578125 44.769531 34.636719 C 44.460938 34.667969 44.105469 34.695312 43.835938 34.507812 C 43.75 34.433594 43.671875 34.359375 43.59375 34.277344 C 43.558594 34.246094 43.558594 34.246094 43.519531 34.210938 C 43.210938 33.925781 43.046875 33.582031 43.011719 33.164062 C 43 32.636719 43.085938 32.035156 43.429688 31.617188 C 43.902344 31.144531 44.617188 31.050781 45.199219 31.378906 Z M 44.046875 32.285156 C 43.878906 32.539062 43.792969 32.769531 43.839844 33.074219 C 43.898438 33.34375 44.042969 33.558594 44.25 33.738281 C 44.355469 33.785156 44.402344 33.785156 44.511719 33.75 C 44.78125 33.621094 44.9375 33.472656 45.070312 33.199219 C 45.152344 32.917969 45.109375 32.683594 45 32.421875 C 44.910156 32.253906 44.785156 32.160156 44.617188 32.074219 C 44.367188 32.050781 44.210938 32.074219 44.046875 32.285156 Z M 44.046875 32.285156 "/>
</g>
</svg>
