<?xml version="1.0" encoding="UTF-8"?>
<svg xmlns="http://www.w3.org/2000/svg" xmlns:xlink="http://www.w3.org/1999/xlink" width="20px" height="20px" viewBox="0 0 20 19" version="1.1">
<g id="surface1">
<path style=" stroke:none;fill-rule:nonzero;fill:rgb(0%,0%,0%);fill-opacity:1;" d="M 10.972656 2.625 C 10.503906 2.730469 10.113281 2.9375 9.796875 3.246094 C 9.5625 3.46875 9.300781 3.785156 9.179688 3.988281 C 9.066406 4.175781 9.019531 4.199219 8.714844 4.230469 C 8.621094 4.238281 8.503906 4.253906 8.453125 4.261719 C 8.402344 4.273438 8.320312 4.285156 8.269531 4.289062 C 8.21875 4.296875 8.144531 4.308594 8.109375 4.316406 C 7.761719 4.402344 7.667969 4.433594 7.617188 4.46875 L 7.566406 4.511719 L 7.554688 4.960938 L 7.546875 5.414062 L 7.40625 5.4375 C 7.238281 5.46875 6.8125 5.582031 6.789062 5.605469 C 6.777344 5.613281 6.757812 5.621094 6.742188 5.621094 C 6.722656 5.621094 6.675781 5.636719 6.632812 5.65625 C 6.59375 5.675781 6.550781 5.691406 6.539062 5.691406 C 6.527344 5.691406 6.464844 5.71875 6.167969 5.859375 C 5.90625 5.980469 5.464844 6.257812 5.25 6.4375 C 4.964844 6.675781 4.582031 7.0625 4.402344 7.289062 C 4.214844 7.53125 4.1875 7.570312 4.1875 7.601562 C 4.183594 7.617188 4.179688 7.636719 4.167969 7.648438 C 4.101562 7.710938 3.824219 8.292969 3.75 8.53125 C 3.71875 8.625 3.707031 8.667969 3.667969 8.808594 C 3.628906 8.941406 3.574219 9.292969 3.554688 9.546875 C 3.527344 9.875 3.558594 10.238281 3.667969 10.796875 C 3.703125 10.988281 3.820312 11.3125 3.964844 11.617188 C 4.007812 11.699219 4.035156 11.78125 4.03125 11.796875 C 4.027344 11.816406 4.035156 11.832031 4.054688 11.839844 C 4.089844 11.851562 4.105469 11.875 4.214844 12.070312 C 4.304688 12.226562 4.3125 12.253906 4.265625 12.269531 C 4.203125 12.292969 3.75 12.585938 3.640625 12.671875 C 3.578125 12.722656 3.472656 12.820312 3.410156 12.886719 C 3.085938 13.242188 2.949219 13.839844 3.097656 14.25 C 3.175781 14.46875 3.25 14.574219 3.457031 14.777344 C 3.578125 14.894531 3.628906 14.929688 3.804688 15.015625 C 3.917969 15.066406 4.054688 15.121094 4.109375 15.136719 C 4.167969 15.15625 4.230469 15.175781 4.25 15.183594 C 4.3125 15.207031 4.53125 15.261719 4.667969 15.28125 C 4.890625 15.320312 4.996094 15.328125 5.371094 15.347656 C 5.601562 15.355469 5.914062 15.363281 6.066406 15.355469 C 6.21875 15.347656 6.449219 15.34375 6.578125 15.34375 C 6.707031 15.34375 6.847656 15.335938 6.894531 15.328125 C 6.9375 15.320312 7.03125 15.304688 7.101562 15.292969 C 7.316406 15.253906 7.433594 15.199219 7.582031 15.070312 C 7.644531 15.015625 7.707031 14.972656 7.714844 14.972656 C 7.730469 14.972656 7.789062 15.007812 7.847656 15.050781 C 8.125 15.253906 8.449219 15.433594 8.535156 15.433594 C 8.550781 15.433594 8.574219 15.441406 8.582031 15.449219 C 8.59375 15.460938 8.640625 15.472656 8.683594 15.480469 C 8.828125 15.5 10.164062 15.515625 10.804688 15.503906 C 12.011719 15.480469 12.1875 15.429688 12.523438 15.023438 C 12.597656 14.933594 12.6875 14.765625 12.734375 14.636719 C 12.773438 14.527344 12.769531 14.027344 12.734375 13.828125 C 12.667969 13.488281 12.550781 13.222656 12.328125 12.90625 C 12.269531 12.820312 12.242188 12.761719 12.25 12.742188 C 12.253906 12.722656 12.328125 12.609375 12.410156 12.488281 C 12.804688 11.910156 13.058594 11.453125 13.164062 11.125 C 13.1875 11.054688 13.214844 10.984375 13.222656 10.964844 C 13.230469 10.945312 13.242188 10.910156 13.25 10.882812 C 13.332031 10.480469 13.398438 10.242188 13.4375 10.203125 C 13.457031 10.183594 13.496094 10.171875 13.535156 10.171875 C 13.601562 10.171875 13.605469 10.175781 13.636719 10.246094 C 13.652344 10.289062 13.660156 10.328125 13.648438 10.339844 C 13.640625 10.347656 13.628906 10.402344 13.621094 10.457031 C 13.617188 10.511719 13.605469 10.582031 13.59375 10.617188 C 13.582031 10.652344 13.574219 10.816406 13.574219 10.984375 C 13.574219 11.320312 13.589844 11.390625 13.707031 11.589844 C 13.828125 11.808594 14.140625 12.15625 14.296875 12.257812 C 14.460938 12.367188 14.511719 12.386719 14.722656 12.421875 C 15.035156 12.472656 15.246094 12.4375 15.582031 12.269531 C 15.785156 12.171875 15.929688 12.054688 16.070312 11.867188 C 16.148438 11.765625 16.308594 11.488281 16.355469 11.371094 C 16.363281 11.347656 16.378906 11.3125 16.386719 11.289062 C 16.394531 11.269531 16.414062 11.21875 16.425781 11.179688 C 16.433594 11.140625 16.457031 11.058594 16.472656 11 C 16.496094 10.925781 16.503906 10.816406 16.503906 10.636719 C 16.507812 10.390625 16.503906 10.367188 16.445312 10.1875 C 16.414062 10.085938 16.371094 9.972656 16.355469 9.9375 C 16.34375 9.90625 16.320312 9.859375 16.316406 9.839844 C 16.308594 9.820312 16.285156 9.777344 16.273438 9.742188 C 16.253906 9.707031 16.226562 9.640625 16.203125 9.59375 L 16.167969 9.503906 L 16.203125 9.410156 C 16.222656 9.359375 16.269531 9.257812 16.304688 9.1875 C 16.359375 9.074219 16.445312 8.84375 16.515625 8.632812 C 16.53125 8.59375 16.535156 8.425781 16.535156 8.199219 C 16.535156 7.796875 16.511719 7.621094 16.417969 7.339844 C 16.289062 6.972656 15.949219 6.605469 15.582031 6.445312 C 15.417969 6.367188 15.320312 6.351562 15.105469 6.347656 C 14.921875 6.347656 14.878906 6.355469 14.734375 6.402344 C 14.644531 6.433594 14.535156 6.480469 14.5 6.503906 C 14.460938 6.527344 14.421875 6.546875 14.417969 6.546875 C 14.394531 6.546875 14.113281 6.734375 14.003906 6.824219 C 13.894531 6.914062 13.730469 7.199219 13.636719 7.464844 C 13.550781 7.707031 13.535156 7.832031 13.539062 8.183594 C 13.542969 8.507812 13.542969 8.511719 13.5 8.554688 C 13.4375 8.621094 13.378906 8.613281 13.304688 8.535156 C 13.269531 8.5 13.242188 8.460938 13.242188 8.453125 C 13.242188 8.445312 13.226562 8.414062 13.207031 8.390625 C 13.1875 8.363281 13.148438 8.289062 13.121094 8.222656 C 13.0625 8.074219 12.886719 7.746094 12.8125 7.640625 C 12.785156 7.601562 12.757812 7.5625 12.757812 7.558594 C 12.757812 7.539062 12.625 7.359375 12.460938 7.15625 C 12.304688 6.96875 11.914062 6.59375 11.695312 6.429688 C 11.621094 6.371094 11.464844 6.261719 11.351562 6.183594 C 11.238281 6.105469 11.128906 6.019531 11.109375 5.992188 C 11.074219 5.945312 11.0625 5.824219 11.089844 5.808594 C 11.101562 5.804688 11.109375 5.777344 11.117188 5.75 C 11.121094 5.722656 11.136719 5.667969 11.144531 5.628906 C 11.203125 5.394531 11.238281 5.183594 11.242188 5.078125 C 11.25 4.839844 11.25 4.835938 11.128906 4.695312 C 11.046875 4.59375 11.023438 4.558594 11.035156 4.535156 C 11.078125 4.457031 11.269531 4.332031 11.472656 4.238281 C 11.785156 4.101562 11.894531 4.035156 11.953125 3.945312 C 12.003906 3.863281 12.074219 3.648438 12.074219 3.570312 C 12.074219 3.5 12.039062 3.3125 12.019531 3.257812 C 12.011719 3.238281 11.992188 3.191406 11.980469 3.160156 C 11.96875 3.125 11.925781 3.054688 11.890625 3.007812 C 11.710938 2.777344 11.550781 2.683594 11.226562 2.621094 C 11.113281 2.601562 11.074219 2.601562 10.972656 2.625 Z M 11.171875 3.070312 C 11.222656 3.082031 11.296875 3.101562 11.332031 3.117188 C 11.484375 3.183594 11.648438 3.417969 11.648438 3.574219 C 11.648438 3.707031 11.535156 3.804688 11.179688 3.996094 C 11.007812 4.085938 10.890625 4.164062 10.726562 4.296875 C 10.617188 4.382812 10.605469 4.390625 10.511719 4.390625 C 10.460938 4.390625 10.355469 4.378906 10.277344 4.359375 C 10.203125 4.347656 10.09375 4.324219 10.042969 4.316406 C 9.808594 4.277344 9.738281 4.257812 9.679688 4.210938 L 9.621094 4.164062 L 9.671875 4.085938 C 9.777344 3.910156 10.289062 3.371094 10.445312 3.269531 C 10.566406 3.195312 10.699219 3.121094 10.730469 3.121094 C 10.75 3.121094 10.773438 3.117188 10.792969 3.105469 C 10.820312 3.089844 10.972656 3.058594 11.039062 3.054688 C 11.058594 3.054688 11.113281 3.058594 11.171875 3.070312 Z M 9.652344 4.613281 C 10.070312 4.699219 10.316406 4.761719 10.453125 4.820312 C 10.542969 4.855469 10.683594 4.964844 10.683594 4.996094 C 10.683594 5.011719 10.695312 5.035156 10.707031 5.046875 C 10.734375 5.074219 10.730469 5.390625 10.703125 5.476562 C 10.644531 5.644531 10.574219 5.726562 10.484375 5.726562 C 10.429688 5.726562 10.25 5.683594 10.121094 5.636719 C 10.019531 5.601562 9.945312 5.585938 9.90625 5.585938 C 9.882812 5.585938 9.839844 5.578125 9.808594 5.566406 C 9.582031 5.5 9.175781 5.449219 8.640625 5.425781 C 8.445312 5.414062 8.257812 5.402344 8.226562 5.394531 C 8.128906 5.378906 8.101562 5.308594 8.101562 5.09375 C 8.101562 4.835938 8.15625 4.675781 8.246094 4.675781 C 8.261719 4.675781 8.292969 4.667969 8.3125 4.660156 C 8.328125 4.648438 8.425781 4.632812 8.527344 4.625 C 8.628906 4.613281 8.734375 4.601562 8.757812 4.597656 C 8.785156 4.59375 8.964844 4.589844 9.160156 4.585938 C 9.425781 4.585938 9.550781 4.59375 9.652344 4.613281 Z M 15.332031 6.945312 C 15.457031 6.980469 15.492188 7.003906 15.660156 7.164062 C 15.839844 7.335938 16.0625 7.640625 16.046875 7.695312 C 16.042969 7.710938 16.046875 7.730469 16.058594 7.738281 C 16.066406 7.742188 16.074219 7.761719 16.074219 7.78125 C 16.074219 7.800781 16.082031 7.816406 16.089844 7.816406 C 16.140625 7.816406 16.175781 8.164062 16.144531 8.378906 C 16.121094 8.570312 16.109375 8.636719 16.089844 8.648438 C 16.082031 8.652344 16.074219 8.667969 16.074219 8.683594 C 16.074219 8.734375 15.933594 9.003906 15.808594 9.191406 C 15.695312 9.359375 15.683594 9.382812 15.695312 9.445312 C 15.707031 9.519531 15.777344 9.667969 15.84375 9.75 C 15.894531 9.816406 16.007812 10.027344 16.011719 10.0625 C 16.011719 10.078125 16.023438 10.113281 16.035156 10.144531 C 16.101562 10.289062 16.128906 10.65625 16.089844 10.796875 C 16.046875 10.949219 15.960938 11.175781 15.90625 11.277344 C 15.828125 11.417969 15.640625 11.609375 15.476562 11.714844 C 15.101562 11.964844 14.894531 11.972656 14.582031 11.738281 C 14.226562 11.476562 14.046875 11.089844 14.050781 10.589844 C 14.050781 10.402344 14.09375 10.234375 14.167969 10.136719 C 14.21875 10.0625 14.265625 9.914062 14.253906 9.863281 C 14.242188 9.824219 14.222656 9.8125 14.144531 9.796875 C 14.089844 9.785156 13.941406 9.769531 13.816406 9.765625 C 13.484375 9.75 13.492188 9.757812 13.472656 9.445312 C 13.464844 9.308594 13.464844 9.183594 13.472656 9.167969 C 13.5 9.097656 13.582031 9.082031 13.894531 9.082031 C 14.300781 9.082031 14.328125 9.066406 14.21875 8.871094 C 14.1875 8.816406 14.148438 8.753906 14.128906 8.734375 C 14.109375 8.714844 14.074219 8.652344 14.046875 8.59375 C 14 8.5 14 8.476562 14 8.195312 C 14 7.882812 14.015625 7.785156 14.101562 7.609375 C 14.152344 7.503906 14.273438 7.335938 14.371094 7.238281 C 14.464844 7.136719 14.667969 6.996094 14.710938 6.996094 C 14.726562 6.996094 14.746094 6.984375 14.75 6.976562 C 14.753906 6.964844 14.78125 6.960938 14.804688 6.960938 C 14.824219 6.960938 14.851562 6.953125 14.863281 6.941406 C 14.902344 6.902344 15.203125 6.90625 15.332031 6.945312 Z M 8.207031 7.371094 C 8.300781 7.433594 8.382812 7.558594 8.421875 7.699219 C 8.449219 7.792969 8.480469 8.117188 8.480469 8.269531 C 8.480469 8.414062 8.433594 8.8125 8.410156 8.902344 C 8.390625 8.976562 8.304688 9.210938 8.269531 9.289062 C 8.253906 9.316406 8.226562 9.386719 8.203125 9.4375 C 8.136719 9.597656 7.988281 9.789062 7.867188 9.871094 C 7.835938 9.890625 7.769531 9.917969 7.714844 9.933594 C 7.636719 9.953125 7.609375 9.953125 7.539062 9.929688 C 7.386719 9.878906 7.308594 9.796875 7.226562 9.601562 C 7.140625 9.402344 7.125 9.292969 7.125 8.914062 C 7.125 8.464844 7.160156 8.269531 7.28125 8.042969 C 7.289062 8.027344 7.296875 8 7.296875 7.984375 C 7.296875 7.972656 7.335938 7.882812 7.382812 7.792969 C 7.445312 7.664062 7.496094 7.601562 7.59375 7.507812 C 7.75 7.359375 7.839844 7.316406 8 7.316406 C 8.105469 7.316406 8.128906 7.324219 8.207031 7.371094 Z M 5.714844 7.398438 C 5.878906 7.472656 5.972656 7.699219 6.003906 8.074219 C 6.046875 8.597656 5.949219 9.019531 5.6875 9.4375 C 5.570312 9.628906 5.394531 9.777344 5.285156 9.777344 C 5.238281 9.777344 5.164062 9.726562 5.105469 9.664062 C 5.046875 9.59375 4.964844 9.433594 4.964844 9.386719 C 4.964844 9.367188 4.957031 9.347656 4.945312 9.34375 C 4.90625 9.320312 4.878906 8.699219 4.90625 8.511719 C 4.964844 8.144531 5.058594 7.871094 5.195312 7.664062 C 5.367188 7.40625 5.542969 7.320312 5.714844 7.398438 Z M 10.546875 12.558594 C 11.035156 12.613281 11.453125 12.761719 11.695312 12.957031 C 11.75 13.003906 11.808594 13.042969 11.816406 13.042969 C 11.84375 13.042969 12.105469 13.390625 12.144531 13.480469 C 12.25 13.707031 12.296875 13.898438 12.296875 14.09375 C 12.296875 14.367188 12.152344 14.648438 11.941406 14.785156 C 11.835938 14.847656 11.609375 14.925781 11.558594 14.910156 C 11.527344 14.898438 11.429688 14.914062 11.175781 14.960938 C 10.96875 15 8.792969 15 8.65625 14.960938 C 8.414062 14.890625 8.144531 14.671875 8.082031 14.492188 C 8.027344 14.328125 8.070312 13.804688 8.148438 13.671875 C 8.167969 13.640625 8.183594 13.59375 8.183594 13.570312 C 8.183594 13.453125 8.40625 13.152344 8.628906 12.957031 C 8.902344 12.71875 9.148438 12.597656 9.464844 12.546875 C 9.582031 12.527344 10.332031 12.535156 10.546875 12.558594 Z M 4.769531 12.796875 C 4.945312 12.972656 5.332031 13.238281 5.859375 13.535156 C 5.960938 13.59375 6.074219 13.660156 6.109375 13.679688 C 6.242188 13.761719 6.550781 13.898438 6.714844 13.949219 C 6.78125 13.96875 6.847656 13.996094 6.871094 14.007812 C 6.894531 14.019531 6.996094 14.046875 7.101562 14.070312 C 7.511719 14.167969 7.507812 14.167969 7.539062 14.300781 C 7.558594 14.386719 7.558594 14.410156 7.53125 14.476562 C 7.476562 14.609375 7.328125 14.71875 7.140625 14.761719 C 6.8125 14.835938 5.886719 14.890625 5.480469 14.859375 C 4.730469 14.808594 4.664062 14.796875 4.390625 14.734375 C 3.898438 14.625 3.605469 14.367188 3.550781 14.003906 C 3.496094 13.609375 3.605469 13.339844 3.953125 13.050781 C 4.1875 12.847656 4.472656 12.6875 4.59375 12.6875 C 4.648438 12.6875 4.675781 12.703125 4.769531 12.796875 Z M 4.769531 12.796875 "/>
<path style=" stroke:none;fill-rule:nonzero;fill:rgb(0%,0%,0%);fill-opacity:1;" d="M 14.867188 7.683594 C 14.792969 7.726562 14.730469 7.800781 14.667969 7.910156 C 14.636719 7.96875 14.628906 8.007812 14.628906 8.195312 C 14.628906 8.410156 14.632812 8.417969 14.6875 8.503906 C 14.78125 8.648438 14.945312 8.761719 15.0625 8.761719 C 15.265625 8.761719 15.421875 8.660156 15.515625 8.464844 C 15.570312 8.359375 15.574219 8.328125 15.574219 8.179688 C 15.574219 7.988281 15.542969 7.894531 15.433594 7.78125 C 15.328125 7.667969 15.25 7.636719 15.078125 7.640625 C 14.960938 7.640625 14.925781 7.644531 14.867188 7.683594 Z M 15.21875 7.964844 C 15.285156 8.023438 15.339844 8.148438 15.324219 8.21875 C 15.296875 8.367188 15.171875 8.472656 15.046875 8.449219 C 14.9375 8.429688 14.886719 8.34375 14.882812 8.171875 C 14.882812 8.058594 14.886719 8.042969 14.933594 7.992188 C 15.027344 7.902344 15.136719 7.890625 15.21875 7.964844 Z M 15.21875 7.964844 "/>
<path style=" stroke:none;fill-rule:nonzero;fill:rgb(0%,0%,0%);fill-opacity:1;" d="M 14.980469 10.0625 C 14.886719 10.078125 14.773438 10.140625 14.714844 10.210938 C 14.609375 10.347656 14.5625 10.625 14.609375 10.792969 C 14.640625 10.878906 14.742188 11.011719 14.835938 11.085938 C 14.890625 11.128906 14.929688 11.140625 15.007812 11.148438 C 15.253906 11.167969 15.378906 11.097656 15.484375 10.886719 C 15.539062 10.78125 15.546875 10.753906 15.546875 10.597656 C 15.546875 10.449219 15.539062 10.417969 15.496094 10.332031 C 15.46875 10.277344 15.425781 10.210938 15.402344 10.183594 C 15.316406 10.089844 15.132812 10.035156 14.980469 10.0625 Z M 15.1875 10.363281 C 15.355469 10.5 15.324219 10.761719 15.121094 10.859375 C 15.046875 10.894531 15.011719 10.890625 14.96875 10.84375 C 14.84375 10.714844 14.820312 10.574219 14.898438 10.445312 C 14.980469 10.3125 15.085938 10.28125 15.1875 10.363281 Z M 15.1875 10.363281 "/>
</g>
</svg>
