<?xml version="1.0" encoding="UTF-8"?>
<svg xmlns="http://www.w3.org/2000/svg" xmlns:xlink="http://www.w3.org/1999/xlink" width="35px" height="40px" viewBox="0 0 35 39" version="1.1">
<g id="surface1">
<path style=" stroke:none;fill-rule:nonzero;fill:rgb(0%,0%,0%);fill-opacity:1;" d="M 15.347656 3.320312 C 14.402344 3.523438 13.746094 3.757812 12.933594 4.1875 C 10.316406 5.589844 7.859375 8.839844 7.261719 11.695312 C 6.925781 13.257812 7.285156 15.269531 8.070312 16.277344 L 8.289062 16.558594 L 8.109375 16.742188 C 7.355469 17.539062 7.3125 19.035156 8.011719 20.445312 C 8.167969 20.761719 8.429688 21.175781 8.597656 21.382812 C 8.992188 21.863281 9.707031 22.335938 10.035156 22.335938 C 10.207031 22.335938 10.304688 22.371094 10.332031 22.457031 C 10.652344 23.371094 11.367188 24.210938 12.25 24.710938 L 12.722656 24.984375 L 12.359375 24.984375 C 12.074219 24.992188 11.863281 25.054688 11.390625 25.296875 C 10.792969 25.605469 10.769531 25.613281 10.523438 25.507812 C 10.375 25.449219 10.1875 25.421875 10.097656 25.441406 C 9.976562 25.46875 9.929688 25.433594 9.859375 25.234375 C 9.742188 24.917969 9.332031 24.574219 9.011719 24.519531 C 8.726562 24.460938 8.042969 24.503906 7.867188 24.582031 C 7.765625 24.625 7.742188 24.523438 7.707031 23.816406 C 7.683594 23.367188 7.589844 22.664062 7.511719 22.257812 C 7.253906 21.03125 6.90625 20.445312 6.234375 20.144531 C 5.164062 19.648438 4.019531 20.359375 4.011719 21.519531 C 4.011719 21.960938 4.164062 22.777344 4.457031 23.925781 C 4.570312 24.382812 4.667969 24.820312 4.667969 24.890625 C 4.667969 24.96875 4.558594 25.078125 4.402344 25.164062 C 3.820312 25.46875 3.492188 26.0625 3.441406 26.917969 C 3.414062 27.460938 3.433594 27.597656 3.632812 28.15625 C 4.230469 29.867188 5.359375 30.902344 7.144531 31.382812 C 7.523438 31.492188 8.027344 31.640625 8.261719 31.726562 C 8.875 31.941406 9.632812 31.890625 10.332031 31.578125 C 10.617188 31.449219 10.945312 31.246094 11.054688 31.132812 C 11.324219 30.855469 11.492188 30.847656 11.347656 31.117188 C 11.0625 31.664062 10.929688 32.234375 10.820312 33.332031 C 10.753906 33.96875 10.929688 34.253906 11.609375 34.667969 C 12.644531 35.300781 13.992188 35.730469 15.605469 35.949219 C 16.539062 36.070312 20.097656 36.070312 20.925781 35.949219 C 21.832031 35.8125 22.824219 35.542969 23.441406 35.261719 C 24.683594 34.699219 24.980469 34.316406 24.921875 33.367188 C 24.902344 33 24.835938 32.699219 24.742188 32.507812 C 24.652344 32.34375 24.601562 32.148438 24.617188 32.085938 C 24.636719 32.019531 24.550781 31.734375 24.433594 31.460938 C 24.308594 31.183594 24.246094 30.953125 24.28125 30.9375 C 24.316406 30.925781 24.457031 30.996094 24.59375 31.097656 C 25.070312 31.449219 25.644531 31.65625 26.277344 31.691406 C 26.804688 31.726562 26.988281 31.699219 27.855469 31.46875 C 29.101562 31.140625 29.675781 30.917969 30.1875 30.558594 C 30.96875 30.023438 31.660156 29.015625 31.914062 28.039062 C 32.089844 27.375 32.019531 26.421875 31.761719 25.929688 C 31.523438 25.464844 31.085938 24.984375 30.734375 24.796875 C 30.597656 24.726562 30.480469 24.609375 30.480469 24.554688 C 30.480469 24.316406 30.640625 23.199219 30.75 22.65625 C 30.894531 21.925781 30.84375 21.0625 30.617188 20.546875 C 30.371094 19.980469 29.742188 19.542969 29.179688 19.542969 C 28.824219 19.542969 28.269531 19.714844 28.058594 19.886719 C 27.476562 20.367188 27.152344 21.691406 27.21875 23.308594 L 27.261719 24.316406 L 26.992188 24.226562 C 26.242188 23.960938 25.308594 24.347656 25.183594 24.976562 C 25.140625 25.183594 25.121094 25.199219 24.8125 25.199219 C 24.558594 25.199219 24.449219 25.242188 24.296875 25.390625 L 24.097656 25.59375 L 23.464844 25.304688 C 23.105469 25.148438 22.824219 25.003906 22.824219 24.976562 C 22.824219 24.953125 22.953125 24.863281 23.113281 24.777344 C 23.84375 24.375 24.585938 23.496094 24.902344 22.679688 C 25.019531 22.378906 25.046875 22.347656 25.273438 22.347656 C 26.113281 22.347656 27.285156 20.996094 27.605469 19.648438 C 27.863281 18.582031 27.578125 17.265625 26.964844 16.664062 L 26.679688 16.386719 L 26.871094 16.144531 C 27.65625 15.140625 27.671875 12.980469 26.90625 10.84375 C 25.484375 6.871094 22.339844 3.914062 18.820312 3.265625 C 17.894531 3.09375 16.347656 3.121094 15.347656 3.320312 Z M 18.675781 3.828125 C 21.582031 4.332031 24.253906 6.542969 25.804688 9.742188 C 26.484375 11.140625 26.90625 12.691406 26.90625 13.792969 C 26.90625 14.425781 26.714844 15.289062 26.492188 15.664062 C 26.386719 15.835938 26.15625 16.078125 25.972656 16.199219 C 25.789062 16.328125 25.507812 16.550781 25.339844 16.695312 L 25.046875 16.957031 L 25.011719 18.320312 C 24.980469 19.507812 24.960938 19.699219 24.84375 19.808594 C 24.71875 19.929688 24.703125 19.929688 24.601562 19.792969 C 24.523438 19.691406 24.5 19.550781 24.523438 19.320312 C 24.574219 18.890625 24.492188 18.75 24.289062 18.925781 C 24.164062 19.035156 24.121094 19.042969 24.027344 18.96875 C 23.851562 18.828125 23.894531 18.453125 24.171875 17.738281 C 24.308594 17.375 24.449219 16.894531 24.484375 16.679688 C 24.527344 16.378906 24.566406 16.292969 24.660156 16.308594 C 24.871094 16.34375 25.140625 15.929688 25.199219 15.492188 C 25.300781 14.652344 25.113281 13.808594 24.652344 13.105469 C 24.382812 12.699219 23.726562 12.054688 23.222656 11.695312 C 22.714844 11.347656 21.523438 10.796875 20.695312 10.523438 C 20.300781 10.402344 19.964844 10.273438 19.941406 10.238281 C 19.921875 10.199219 19.957031 9.957031 20.023438 9.6875 C 20.191406 8.992188 20.132812 7.839844 19.914062 7.28125 C 19.652344 6.613281 19.226562 6.171875 18.566406 5.835938 L 17.988281 5.546875 L 15.933594 5.546875 L 15.371094 5.8125 C 14.386719 6.269531 13.722656 7.085938 13.5625 8.03125 C 13.453125 8.648438 13.605469 9.40625 13.925781 9.90625 C 14.050781 10.09375 14.144531 10.292969 14.144531 10.367188 C 14.144531 10.445312 13.914062 10.609375 13.476562 10.84375 C 11.847656 11.71875 10.59375 12.671875 10.046875 13.445312 C 9.777344 13.832031 9.550781 14.46875 9.550781 14.859375 C 9.550781 15.261719 9.742188 16.128906 9.886719 16.398438 C 9.96875 16.558594 10.035156 16.609375 10.121094 16.570312 C 10.464844 16.429688 10.492188 16.441406 10.535156 16.730469 C 10.59375 17.085938 10.921875 18.554688 11.046875 19 C 11.164062 19.398438 11.132812 19.484375 10.914062 19.464844 C 10.625 19.441406 10.574219 19.472656 10.574219 19.648438 C 10.574219 19.84375 10.472656 19.886719 10.375 19.734375 C 10.257812 19.550781 10.054688 18.621094 9.996094 17.996094 C 9.929688 17.214844 9.800781 16.957031 9.296875 16.609375 C 8.75 16.230469 8.449219 15.898438 8.230469 15.425781 C 7.847656 14.625 7.765625 14.175781 7.773438 12.957031 C 7.773438 11.960938 7.792969 11.78125 7.976562 11.203125 C 8.496094 9.519531 9.910156 7.324219 11.28125 6.078125 C 12.554688 4.910156 14.117188 4.117188 15.683594 3.835938 C 16.421875 3.699219 17.929688 3.699219 18.675781 3.828125 Z M 18.171875 5.964844 C 18.964844 6.3125 19.535156 6.992188 19.796875 7.902344 C 19.964844 8.460938 19.921875 9.433594 19.722656 9.84375 L 19.578125 10.128906 L 19.214844 10.09375 C 18.492188 10.023438 16.003906 10.078125 15.386719 10.1875 C 14.679688 10.300781 14.464844 10.257812 14.242188 9.957031 C 13.972656 9.605469 13.855469 9.128906 13.855469 8.425781 C 13.855469 7.617188 13.984375 7.308594 14.523438 6.777344 C 15.507812 5.828125 17.085938 5.46875 18.171875 5.964844 Z M 19.503906 10.523438 C 22.632812 11.167969 24.855469 13.058594 24.878906 15.082031 C 24.886719 15.371094 24.851562 15.648438 24.8125 15.683594 C 24.761719 15.734375 24.417969 15.46875 23.761719 14.882812 C 22.640625 13.878906 22.445312 13.746094 21.546875 13.378906 C 20.261719 12.855469 18.835938 12.628906 17.332031 12.707031 C 16.273438 12.765625 15.777344 12.851562 15.011719 13.101562 C 14.671875 13.214844 14.136719 13.335938 13.824219 13.378906 C 13.125 13.480469 12.980469 13.550781 12.433594 14.101562 C 12.191406 14.347656 11.8125 14.675781 11.59375 14.839844 C 11.375 14.996094 10.960938 15.332031 10.667969 15.585938 C 10.085938 16.09375 10.089844 16.09375 9.925781 15.484375 C 9.816406 15.082031 9.925781 14.417969 10.179688 13.902344 C 10.886719 12.476562 13.605469 10.867188 16.042969 10.421875 C 16.871094 10.273438 18.507812 10.324219 19.503906 10.523438 Z M 18.789062 13.230469 C 19.503906 13.300781 19.5625 13.371094 19.207031 13.757812 C 18.847656 14.136719 18.300781 15.417969 18.433594 15.546875 C 18.5 15.613281 18.578125 15.5625 18.777344 15.332031 C 19.273438 14.769531 20.351562 14.402344 20.964844 14.605469 C 21.300781 14.710938 21.75 15.105469 21.875 15.390625 C 21.976562 15.628906 22.035156 15.65625 22.152344 15.511719 C 22.238281 15.414062 22.152344 14.859375 21.984375 14.453125 C 21.882812 14.179688 21.898438 14.101562 22.078125 14.101562 C 22.355469 14.101562 24.054688 15.691406 24.214844 16.105469 C 24.316406 16.34375 24.238281 16.730469 23.910156 17.632812 C 23.542969 18.625 23.542969 18.8125 23.902344 19.207031 C 24.046875 19.371094 24.246094 19.648438 24.339844 19.828125 C 24.695312 20.523438 24.921875 20.636719 25.089844 20.207031 C 25.316406 19.648438 25.390625 19.542969 25.601562 19.4375 C 25.804688 19.328125 25.835938 19.328125 25.949219 19.429688 C 26.113281 19.570312 26.25 19.578125 26.25 19.441406 C 26.25 19.292969 25.957031 19.113281 25.726562 19.113281 C 25.46875 19.113281 25.457031 18.941406 25.667969 18.554688 C 25.980469 17.980469 26.25 17.839844 26.585938 18.074219 C 26.773438 18.195312 26.855469 18.140625 26.753906 17.953125 C 26.570312 17.625 26.007812 17.644531 25.667969 18.003906 C 25.398438 18.28125 25.292969 18.238281 25.308594 17.839844 C 25.332031 17.316406 25.425781 17.144531 25.785156 16.957031 C 26.105469 16.785156 26.105469 16.785156 26.359375 16.921875 C 26.550781 17.023438 26.679688 17.179688 26.839844 17.511719 C 27.503906 18.835938 26.914062 20.816406 25.601562 21.625 C 25.238281 21.855469 25.054688 21.820312 25.046875 21.503906 C 25.046875 21.398438 25.011719 21.296875 24.960938 21.28125 C 24.785156 21.226562 24.585938 21.539062 24.472656 22.0625 C 24.207031 23.207031 23.542969 23.945312 22.195312 24.589844 C 21.683594 24.839844 21.050781 25.21875 20.578125 25.570312 C 19.375 26.464844 18.746094 26.679688 17.609375 26.609375 C 16.84375 26.558594 16.378906 26.378906 15.496094 25.800781 C 15.09375 25.542969 14.253906 25.078125 13.636719 24.769531 C 11.6875 23.808594 11.222656 23.34375 10.777344 21.941406 C 10.660156 21.546875 10.527344 21.195312 10.5 21.167969 C 10.476562 21.140625 10.398438 21.132812 10.324219 21.160156 C 10.230469 21.195312 10.199219 21.273438 10.222656 21.46875 C 10.253906 21.820312 10.078125 21.839844 9.640625 21.546875 C 8.238281 20.601562 7.597656 18.023438 8.53125 17.144531 L 8.75 16.9375 L 9.09375 17.125 C 9.480469 17.332031 9.625 17.53125 9.625 17.875 C 9.625 18.148438 9.582031 18.160156 9.332031 17.96875 C 8.984375 17.695312 8.210938 17.894531 8.339844 18.21875 C 8.386719 18.332031 8.398438 18.339844 8.515625 18.226562 C 8.714844 18.054688 8.933594 18.082031 9.171875 18.320312 C 9.542969 18.691406 9.734375 19.25 9.449219 19.140625 C 9.320312 19.09375 8.941406 19.542969 9.027344 19.628906 C 9.070312 19.671875 9.164062 19.65625 9.28125 19.578125 C 9.542969 19.414062 9.707031 19.535156 9.988281 20.121094 C 10.113281 20.386719 10.265625 20.625 10.332031 20.644531 C 10.476562 20.703125 10.675781 20.53125 10.792969 20.257812 C 10.871094 20.074219 10.980469 20.007812 11.402344 19.871094 C 11.621094 19.800781 11.527344 19.019531 11.199219 18.183594 C 11.046875 17.8125 10.894531 17.257812 10.851562 16.957031 C 10.777344 16.472656 10.785156 16.378906 10.910156 16.136719 C 11.054688 15.847656 12.015625 15.019531 12.132812 15.082031 C 12.164062 15.105469 12.175781 15.246094 12.15625 15.398438 C 12.132812 15.589844 12.15625 15.699219 12.226562 15.757812 C 12.316406 15.828125 12.34375 15.828125 12.394531 15.742188 C 12.832031 14.996094 13.097656 14.796875 13.738281 14.761719 C 14.320312 14.726562 14.859375 14.925781 15.363281 15.355469 C 15.910156 15.828125 16.019531 15.777344 15.75 15.191406 C 15.667969 15.019531 15.421875 14.625 15.203125 14.316406 C 14.984375 14.007812 14.800781 13.738281 14.800781 13.714844 C 14.800781 13.628906 15.285156 13.445312 15.84375 13.316406 C 16.488281 13.171875 17.820312 13.136719 18.789062 13.230469 Z M 29.742188 20.316406 C 30.164062 20.617188 30.398438 21.769531 30.1875 22.476562 C 30.078125 22.820312 29.894531 24.273438 29.832031 25.234375 C 29.800781 25.664062 29.757812 26.0625 29.726562 26.105469 C 29.691406 26.15625 29.691406 26.234375 29.722656 26.285156 C 29.800781 26.40625 29.882812 26.15625 29.886719 25.785156 C 29.894531 25.476562 30.085938 25.199219 30.289062 25.199219 C 30.464844 25.199219 31.027344 25.75 31.207031 26.101562 C 31.425781 26.523438 31.492188 27.390625 31.355469 27.902344 C 31.1875 28.503906 30.816406 29.15625 30.382812 29.613281 C 29.734375 30.289062 29.355469 30.472656 27.539062 30.960938 C 26.578125 31.226562 25.964844 31.195312 25.316406 30.855469 C 24.851562 30.609375 24.390625 30.179688 24.464844 30.058594 C 24.492188 30.023438 24.644531 30.085938 24.8125 30.210938 C 24.980469 30.324219 25.242188 30.46875 25.390625 30.53125 C 25.804688 30.695312 25.796875 30.523438 25.375 30.316406 C 23.910156 29.585938 23.492188 27.496094 24.523438 26.007812 C 24.761719 25.65625 25.121094 25.699219 25.492188 26.121094 C 25.726562 26.386719 25.820312 26.265625 25.730469 25.808594 C 25.621094 25.277344 25.761719 24.910156 26.117188 24.78125 C 26.6875 24.566406 27.261719 24.847656 27.546875 25.492188 C 27.90625 26.273438 27.941406 26.019531 27.824219 23.585938 C 27.757812 22.199219 27.816406 21.625 28.082031 20.9375 C 28.160156 20.722656 28.285156 20.480469 28.351562 20.402344 C 28.597656 20.101562 29.386719 20.050781 29.742188 20.316406 Z M 6.082031 20.710938 C 6.746094 21.082031 7.042969 22.15625 7.144531 24.574219 C 7.183594 25.390625 7.234375 26.09375 7.253906 26.128906 C 7.363281 26.300781 7.496094 26.171875 7.574219 25.8125 C 7.691406 25.285156 7.902344 25.105469 8.457031 25.070312 C 9.171875 25.019531 9.441406 25.335938 9.390625 26.136719 C 9.363281 26.578125 9.480469 26.664062 9.667969 26.351562 C 9.828125 26.085938 10.136719 25.941406 10.339844 26.050781 C 10.515625 26.144531 10.800781 26.5 10.988281 26.878906 C 11.660156 28.191406 11.15625 30.015625 9.980469 30.53125 C 9.707031 30.660156 9.601562 30.78125 9.792969 30.78125 C 9.96875 30.78125 10.527344 30.558594 10.710938 30.417969 C 10.972656 30.210938 11.003906 30.382812 10.746094 30.644531 C 10.632812 30.761719 10.363281 30.945312 10.136719 31.046875 C 9.800781 31.210938 9.632812 31.238281 9.152344 31.238281 C 8.65625 31.238281 8.398438 31.191406 7.472656 30.902344 C 6.875 30.710938 6.207031 30.453125 5.988281 30.332031 C 5.242188 29.894531 4.5 28.929688 4.15625 27.953125 C 3.8125 26.964844 4.070312 25.984375 4.761719 25.636719 C 5.175781 25.425781 5.226562 25.464844 5.359375 26 C 5.445312 26.359375 5.453125 26.363281 5.460938 26.121094 C 5.46875 25.777344 5.300781 24.917969 4.957031 23.53125 C 4.609375 22.132812 4.535156 21.46875 4.6875 21.105469 C 4.914062 20.582031 5.535156 20.402344 6.082031 20.710938 Z M 14.132812 25.511719 C 14.328125 25.613281 14.519531 25.734375 14.570312 25.785156 C 14.648438 25.886719 14.738281 26.472656 14.867188 27.832031 C 14.902344 28.203125 14.960938 28.535156 15.007812 28.578125 C 15.050781 28.621094 15.800781 28.664062 16.859375 28.683594 C 18.347656 28.71875 18.761719 28.707031 19.394531 28.597656 C 19.820312 28.535156 20.175781 28.46875 20.183594 28.457031 C 20.199219 28.441406 20.175781 28.003906 20.132812 27.476562 L 20.050781 26.523438 L 20.328125 26.285156 C 20.539062 26.09375 21.632812 25.484375 21.75 25.484375 C 21.851562 25.484375 22.472656 27.769531 22.566406 28.476562 C 22.613281 28.792969 22.605469 28.84375 22.507812 28.804688 C 22.445312 28.785156 22.378906 28.71875 22.355469 28.671875 C 22.269531 28.441406 21.355469 28.347656 21 28.527344 C 20.425781 28.820312 20.316406 29.910156 20.789062 30.574219 C 21.042969 30.933594 21.941406 31.226562 22.253906 31.0625 C 22.347656 31.011719 22.597656 30.832031 22.800781 30.652344 L 23.1875 30.339844 L 23.324219 30.503906 C 23.40625 30.597656 23.601562 30.980469 23.757812 31.367188 L 24.046875 32.054688 L 23.902344 32.300781 C 23.828125 32.429688 23.625 32.65625 23.457031 32.800781 C 23.296875 32.945312 23.171875 33.085938 23.203125 33.109375 C 23.273438 33.179688 23.640625 33 23.851562 32.777344 C 23.96875 32.65625 24.089844 32.578125 24.128906 32.605469 C 24.246094 32.671875 24.355469 33.144531 24.355469 33.550781 C 24.355469 34.019531 24.148438 34.28125 23.539062 34.582031 C 22.195312 35.25 20.738281 35.507812 18.339844 35.507812 C 15.664062 35.507812 13.671875 35.140625 12.25 34.382812 C 11.527344 34.003906 11.375 33.832031 11.375 33.417969 C 11.375 33.117188 11.398438 33.058594 11.558594 33 L 11.738281 32.9375 L 11.585938 32.679688 C 11.460938 32.480469 11.449219 32.40625 11.519531 32.320312 C 11.59375 32.226562 11.652344 32.242188 11.929688 32.398438 C 12.351562 32.644531 12.367188 32.484375 11.949219 32.113281 C 11.789062 31.964844 11.675781 31.804688 11.695312 31.753906 C 11.710938 31.710938 11.855469 31.382812 12.003906 31.03125 C 12.15625 30.675781 12.277344 30.382812 12.285156 30.375 C 12.292969 30.359375 12.460938 30.417969 12.660156 30.488281 C 13.546875 30.824219 14.175781 30.816406 14.570312 30.472656 C 15.117188 29.980469 14.722656 28.777344 13.941406 28.5625 C 13.554688 28.460938 13.152344 28.546875 12.921875 28.785156 C 12.8125 28.898438 12.703125 28.992188 12.671875 28.992188 C 12.5625 28.992188 12.671875 26.199219 12.796875 25.648438 C 12.871094 25.328125 13.613281 25.253906 14.132812 25.511719 Z M 23.710938 26.070312 C 23.867188 26.179688 23.902344 26.242188 23.851562 26.328125 C 23.820312 26.394531 23.75 26.671875 23.699219 26.945312 C 23.574219 27.597656 23.640625 28.417969 23.886719 29.3125 C 24.171875 30.359375 24.179688 30.425781 24.011719 30.425781 C 23.828125 30.425781 23.210938 29.785156 23.160156 29.550781 C 23.136719 29.464844 22.960938 28.726562 22.757812 27.917969 C 22.339844 26.230469 22.261719 25.742188 22.378906 25.597656 C 22.449219 25.519531 22.554688 25.535156 22.992188 25.714844 C 23.28125 25.835938 23.601562 25.992188 23.710938 26.070312 Z M 12.503906 25.707031 C 12.570312 25.90625 12.484375 27.261719 12.351562 27.945312 C 12.292969 28.253906 12.25 28.691406 12.25 28.914062 C 12.25 29.472656 12.132812 29.824219 11.855469 30.125 C 11.566406 30.429688 11.332031 30.410156 11.402344 30.082031 C 11.660156 28.878906 11.609375 27.675781 11.265625 26.824219 C 11.15625 26.566406 11.082031 26.292969 11.097656 26.222656 C 11.121094 26.070312 12.054688 25.5625 12.300781 25.554688 C 12.394531 25.554688 12.476562 25.613281 12.503906 25.707031 Z M 16.625 26.714844 C 17.390625 26.945312 18.730469 26.945312 19.308594 26.714844 L 19.695312 26.558594 L 19.769531 26.757812 C 19.847656 26.960938 19.824219 28.304688 19.746094 28.382812 C 19.664062 28.46875 16.601562 28.503906 15.910156 28.433594 C 15.539062 28.398438 15.210938 28.347656 15.1875 28.320312 C 15.121094 28.253906 14.957031 27.015625 14.949219 26.578125 C 14.949219 25.980469 14.957031 25.972656 15.554688 26.277344 C 15.84375 26.421875 16.324219 26.621094 16.625 26.714844 Z M 14.152344 29.128906 C 14.488281 29.464844 14.378906 30.015625 13.925781 30.246094 C 13.605469 30.410156 13.359375 30.382812 13.117188 30.144531 C 12.878906 29.902344 12.839844 29.609375 13.015625 29.277344 C 13.152344 29.015625 13.316406 28.929688 13.65625 28.921875 C 13.867188 28.921875 13.984375 28.972656 14.152344 29.128906 Z M 22.21875 29.179688 C 22.296875 29.230469 22.40625 29.386719 22.457031 29.527344 C 22.53125 29.742188 22.523438 29.824219 22.40625 30.042969 C 22.179688 30.488281 21.605469 30.53125 21.253906 30.125 C 20.714844 29.492188 21.488281 28.734375 22.21875 29.179688 Z M 22.21875 29.179688 "/>
<path style=" stroke:none;fill-rule:nonzero;fill:rgb(0%,0%,0%);fill-opacity:1;" d="M 17.667969 6.386719 C 17.585938 6.480469 17.382812 6.75 17.207031 6.992188 C 17.039062 7.246094 16.859375 7.445312 16.800781 7.445312 C 16.742188 7.445312 16.542969 7.214844 16.363281 6.945312 C 16.09375 6.550781 15.984375 6.441406 15.84375 6.441406 C 15.582031 6.441406 15.289062 6.785156 15.078125 7.351562 C 14.976562 7.617188 14.773438 8.140625 14.628906 8.511719 C 14.304688 9.335938 14.292969 9.613281 14.5625 9.785156 C 14.816406 9.949219 15.261719 9.949219 15.445312 9.785156 C 15.582031 9.65625 15.824219 8.839844 15.824219 8.476562 C 15.824219 8.105469 16.144531 8.175781 16.429688 8.617188 C 16.734375 9.097656 16.816406 9.140625 17.019531 8.957031 C 17.113281 8.871094 17.246094 8.667969 17.316406 8.511719 C 17.5 8.125 17.660156 8.144531 17.851562 8.570312 C 17.929688 8.761719 18.019531 9.035156 18.046875 9.183594 C 18.105469 9.492188 18.375 9.734375 18.652344 9.734375 C 18.929688 9.734375 19.46875 9.457031 19.554688 9.269531 C 19.6875 8.976562 18.171875 6.226562 17.871094 6.226562 C 17.84375 6.226562 17.746094 6.300781 17.667969 6.386719 Z M 17.667969 6.386719 "/>
<path style=" stroke:none;fill-rule:nonzero;fill:rgb(0%,0%,0%);fill-opacity:1;" d="M 16.222656 11.960938 C 13.992188 12.113281 12.265625 12.828125 11.070312 14.089844 C 10.742188 14.433594 10.644531 14.605469 10.777344 14.605469 C 10.8125 14.605469 10.914062 14.519531 11.019531 14.417969 C 11.324219 14.09375 12.324219 13.386719 12.824219 13.144531 C 14.042969 12.542969 15.078125 12.3125 16.820312 12.261719 C 19.226562 12.191406 20.898438 12.550781 22.625 13.507812 C 23.632812 14.066406 23.492188 13.703125 22.472656 13.105469 C 20.957031 12.21875 18.628906 11.789062 16.222656 11.960938 Z M 16.222656 11.960938 "/>
<path style=" stroke:none;fill-rule:nonzero;fill:rgb(0%,0%,0%);fill-opacity:1;" d="M 19.273438 15.457031 C 18.789062 15.675781 18.476562 16.269531 18.292969 17.339844 L 18.207031 17.859375 L 17.199219 17.867188 L 16.195312 17.867188 L 16.105469 17.472656 C 15.960938 16.765625 15.894531 16.601562 15.757812 16.621094 C 15.691406 16.636719 15.503906 16.535156 15.347656 16.40625 C 14.949219 16.085938 14.605469 16.09375 14.304688 16.421875 C 13.707031 17.085938 13.753906 18.320312 14.402344 19.15625 C 14.496094 19.277344 14.5625 19.398438 14.539062 19.421875 C 14.519531 19.441406 14.445312 19.679688 14.378906 19.949219 C 14.269531 20.367188 14.234375 20.4375 14.082031 20.460938 C 13.839844 20.496094 13.34375 20.292969 12.820312 19.949219 L 12.375 19.65625 L 12.167969 19.886719 C 11.980469 20.09375 11.957031 20.171875 11.957031 20.609375 C 11.957031 21.417969 12.222656 21.855469 12.914062 22.191406 C 13.234375 22.355469 13.367188 22.472656 13.445312 22.648438 C 13.648438 23.128906 14.242188 23.359375 15.152344 23.324219 C 15.640625 23.300781 15.714844 23.316406 15.734375 23.429688 C 15.75 23.5 15.707031 23.601562 15.640625 23.652344 C 15.472656 23.773438 15.566406 23.9375 15.976562 24.238281 C 16.542969 24.648438 16.996094 24.789062 17.71875 24.796875 C 18.242188 24.796875 18.402344 24.769531 18.789062 24.597656 C 19.222656 24.402344 19.535156 24.167969 19.453125 24.089844 C 19.433594 24.066406 19.273438 24.109375 19.097656 24.1875 C 18.644531 24.382812 17.910156 24.503906 17.472656 24.445312 C 16.902344 24.375 16.113281 24.132812 16.0625 24.011719 C 15.96875 23.757812 16.152344 23.730469 17.304688 23.851562 C 18.121094 23.9375 18.507812 23.953125 18.777344 23.894531 C 18.980469 23.859375 19.273438 23.816406 19.433594 23.808594 C 19.671875 23.800781 19.722656 23.773438 19.761719 23.625 C 19.804688 23.429688 19.855469 23.414062 20.664062 23.238281 C 21.34375 23.085938 21.613281 22.90625 21.808594 22.472656 C 21.957031 22.171875 22.042969 22.078125 22.40625 21.890625 C 22.640625 21.769531 22.917969 21.570312 23.019531 21.445312 C 23.179688 21.253906 23.203125 21.183594 23.164062 20.847656 C 23.121094 20.460938 22.835938 19.773438 22.648438 19.621094 C 22.574219 19.558594 22.457031 19.601562 22.160156 19.800781 C 21.671875 20.121094 21.085938 20.386719 20.714844 20.445312 L 20.4375 20.488281 L 20.25 19.929688 C 20.074219 19.378906 20.074219 19.363281 20.199219 19.199219 C 20.535156 18.785156 20.6875 17.917969 20.527344 17.316406 C 20.386719 16.785156 20.234375 16.492188 19.980469 16.3125 C 19.644531 16.078125 19.460938 16.078125 19.082031 16.328125 C 18.6875 16.578125 18.566406 16.558594 18.785156 16.269531 C 19.167969 15.761719 19.714844 15.628906 20.292969 15.890625 C 20.984375 16.214844 21.234375 16.695312 21.242188 17.703125 C 21.246094 18.28125 21.261719 18.390625 21.335938 18.289062 C 21.472656 18.105469 21.53125 17.339844 21.4375 16.929688 C 21.328125 16.457031 21.023438 15.914062 20.730469 15.699219 C 20.503906 15.527344 19.929688 15.320312 19.695312 15.320312 C 19.628906 15.320312 19.441406 15.382812 19.273438 15.457031 Z M 15.253906 16.800781 C 15.472656 17.050781 15.480469 17.238281 15.277344 17.429688 C 15.144531 17.566406 15.050781 17.601562 14.925781 17.574219 C 14.671875 17.503906 14.496094 17.253906 14.546875 17.042969 C 14.632812 16.695312 15.035156 16.558594 15.253906 16.800781 Z M 19.746094 16.988281 C 19.933594 17.367188 19.542969 17.773438 19.148438 17.601562 C 18.761719 17.429688 18.753906 16.945312 19.125 16.785156 C 19.402344 16.671875 19.621094 16.742188 19.746094 16.988281 Z M 17.972656 18.148438 C 18.914062 18.390625 19.605469 18.914062 19.957031 19.648438 C 20.125 20.007812 20.160156 20.171875 20.160156 20.652344 C 20.160156 21.152344 20.132812 21.273438 19.949219 21.605469 C 19.578125 22.261719 18.9375 22.699219 18.097656 22.871094 C 16.761719 23.144531 15.285156 22.484375 14.730469 21.367188 C 14.480469 20.875 14.464844 19.9375 14.707031 19.5 C 15.058594 18.855469 15.539062 18.46875 16.324219 18.203125 C 16.894531 18.011719 17.382812 17.996094 17.972656 18.148438 Z M 17.972656 18.148438 "/>
<path style=" stroke:none;fill-rule:nonzero;fill:rgb(0%,0%,0%);fill-opacity:1;" d="M 14.027344 15.554688 C 13.359375 15.871094 13.042969 16.484375 13.039062 17.480469 C 13.039062 17.789062 13.082031 18.152344 13.132812 18.304688 C 13.292969 18.792969 13.765625 19.371094 13.898438 19.242188 C 13.914062 19.222656 13.816406 19.042969 13.679688 18.835938 C 13.378906 18.40625 13.234375 17.804688 13.300781 17.28125 C 13.425781 16.265625 13.925781 15.675781 14.683594 15.675781 C 14.949219 15.675781 15.078125 15.726562 15.347656 15.933594 L 15.691406 16.1875 L 15.554688 15.964844 C 15.238281 15.425781 14.640625 15.269531 14.027344 15.554688 Z M 14.027344 15.554688 "/>
<path style=" stroke:none;fill-rule:nonzero;fill:rgb(0%,0%,0%);fill-opacity:1;" d="M 19.207031 24.804688 C 19.140625 24.96875 18.558594 25.269531 18.15625 25.339844 C 17.660156 25.433594 16.878906 25.328125 16.609375 25.125 C 16.449219 25.011719 16.40625 24.996094 16.40625 25.082031 C 16.40625 25.242188 16.675781 25.390625 17.199219 25.527344 C 17.695312 25.648438 18.019531 25.628906 18.601562 25.441406 C 19.003906 25.320312 19.519531 24.90625 19.441406 24.78125 C 19.367188 24.667969 19.257812 24.675781 19.207031 24.804688 Z M 19.207031 24.804688 "/>
<path style=" stroke:none;fill-rule:nonzero;fill:rgb(0%,0%,0%);fill-opacity:1;" d="M 27.695312 28.578125 C 27.460938 28.992188 27.148438 29.851562 27.207031 29.894531 C 27.394531 30.007812 27.925781 29.148438 27.925781 28.734375 C 27.925781 28.441406 27.816406 28.363281 27.695312 28.578125 Z M 27.695312 28.578125 "/>
<path style=" stroke:none;fill-rule:nonzero;fill:rgb(0%,0%,0%);fill-opacity:1;" d="M 28.460938 28.578125 C 28.371094 28.683594 28.253906 29.09375 28.191406 29.542969 C 28.125 30 28.304688 29.945312 28.554688 29.4375 C 28.78125 28.964844 28.824219 28.542969 28.648438 28.503906 C 28.582031 28.5 28.496094 28.527344 28.460938 28.578125 Z M 28.460938 28.578125 "/>
<path style=" stroke:none;fill-rule:nonzero;fill:rgb(0%,0%,0%);fill-opacity:1;" d="M 29.546875 28.757812 C 29.449219 28.792969 29.160156 29.3125 29.066406 29.613281 C 28.976562 29.886719 29.195312 29.816406 29.394531 29.507812 C 29.75 28.972656 29.816406 28.664062 29.546875 28.757812 Z M 29.546875 28.757812 "/>
<path style=" stroke:none;fill-rule:nonzero;fill:rgb(0%,0%,0%);fill-opacity:1;" d="M 7.5625 28.605469 C 7.460938 28.714844 7.519531 28.984375 7.730469 29.398438 C 7.941406 29.816406 8.261719 30.128906 8.339844 30 C 8.378906 29.953125 7.789062 28.742188 7.664062 28.613281 C 7.632812 28.585938 7.589844 28.585938 7.5625 28.605469 Z M 7.5625 28.605469 "/>
<path style=" stroke:none;fill-rule:nonzero;fill:rgb(0%,0%,0%);fill-opacity:1;" d="M 6.722656 28.71875 C 6.578125 28.863281 7.125 29.996094 7.34375 29.996094 C 7.410156 29.996094 7.429688 29.953125 7.410156 29.867188 C 7.386719 29.800781 7.300781 29.527344 7.21875 29.265625 C 7.066406 28.769531 6.875 28.570312 6.722656 28.71875 Z M 6.722656 28.71875 "/>
<path style=" stroke:none;fill-rule:nonzero;fill:rgb(0%,0%,0%);fill-opacity:1;" d="M 5.832031 29.007812 C 5.832031 29.128906 6.207031 29.707031 6.359375 29.835938 C 6.585938 30.015625 6.5625 29.792969 6.320312 29.378906 C 6.097656 28.984375 5.832031 28.785156 5.832031 29.007812 Z M 5.832031 29.007812 "/>
</g>
</svg>
